<svg xmlns="http://www.w3.org/2000/svg" viewBox="0 0 32 32">
  <g>
    <rect width="32" height="32" fill="none"/>
    <path d="M28.85,2.87H23.28a3.47,3.47,0,0,0-6.67,0H3.21a1,1,0,0,0,0,2h13.4a3.47,3.47,0,0,0,6.67,0h5.57a1,1,0,0,0,0-2Zm-7.79,2a1.49,1.49,0,0,1-2.23,0,1.47,1.47,0,0,1-.39-1,1.51,1.51,0,0,1,1.5-1.5,1.52,1.52,0,0,1,1.12.5,1.55,1.55,0,0,1,.38,1A1.51,1.51,0,0,1,21.06,4.87Z" fill="#878787"/>
    <path d="M28.85,12.21H14.39a3.47,3.47,0,0,0-6.67,0H3.21a1,1,0,0,0,0,2H7.72a3.47,3.47,0,0,0,6.67,0H28.85a1,1,0,0,0,0-2Zm-17.79,2.5a1.52,1.52,0,0,1-1.12-.5,1.55,1.55,0,0,1-.38-1,1.47,1.47,0,0,1,.39-1,1.45,1.45,0,0,1,1.11-.5,1.48,1.48,0,0,1,1.11.5,1.47,1.47,0,0,1,.39,1,1.51,1.51,0,0,1-1.5,1.5Z" fill="#878787"/>
    <path d="M31,18.37,19.33,21.82l4.81,1.81-.25.17c-.51.33-1,.64-1.57.93A28.55,28.55,0,0,1,19,26.29,26.54,26.54,0,0,1,11.91,28a16.27,16.27,0,0,1-7.1-.64A6.59,6.59,0,0,1,2,25.47a5.29,5.29,0,0,1-.87-1.54A5.8,5.8,0,0,1,.8,22.1l-.2,0a5.25,5.25,0,0,0,.47,4,7.22,7.22,0,0,0,3,2.87A12.41,12.41,0,0,0,8,30.2a19.7,19.7,0,0,0,2,.23,19.64,19.64,0,0,0,2,0,26.92,26.92,0,0,0,7.85-1.68,26.39,26.39,0,0,0,3.67-1.68c.59-.32,1.16-.67,1.73-1.05.28-.19.55-.38.82-.59l.36-.26,2.84,4.51Z" fill="#878787"/>
  </g>
</svg>
